<svg xmlns="http://www.w3.org/2000/svg" viewBox="0 0 120 100" role="img" aria-label="PetBox">
  <rect width="120" height="100" rx="24" fill="#f8f2e7"/>
  <path fill="#064b2b" d="M37.8 34.8c-6.7 1.7-13.5-4.5-15.3-13.7C20.7 11.8 24.8 3.1 31.5 1.5c6.6-1.6 13.4 4.5 15.2 13.8 1.8 9.2-2.3 17.9-8.9 19.5Z"/>
  <path fill="#0b6b3d" d="M64.6 31.4c-7.4 0-13.4-7.1-13.4-15.7S57.2 0 64.6 0 78 7.1 78 15.7s-6 15.7-13.4 15.7Z"/>
  <path fill="#064b2b" d="M91.3 36.5c-6.7-1.6-10.8-10.3-9-19.6C84.1 7.7 91 .9 97.6 2.5c6.7 1.6 10.8 10.3 9 19.6-1.8 9.2-8.6 16-15.3 14.4Z"/>
  <path fill="#0b6b3d" d="M17.7 60.6C10.6 62.2 3 56.5.8 47.9c-2.2-8.7 1.9-17.1 9-18.7 7.1-1.7 14.7 4 16.9 12.7 2.2 8.6-1.8 17-9 18.7Z"/>
  <path fill="#0b6b3d" d="M102.4 60.6c-7.1-1.7-11.1-10.1-8.9-18.7 2.2-8.7 9.8-14.4 16.9-12.7 7.1 1.6 11.1 10 8.9 18.7-2.2 8.6-9.8 14.3-16.9 12.7Z"/>
  <path fill="#064b2b" d="M30.2 84.9c0-21.8 15-39.4 33.6-39.4s33.7 17.6 33.7 39.4c0 10.5-7.4 15.1-18.2 15.1-6.9 0-10.4-2.5-15.5-2.5-5.1 0-8.5 2.5-15.4 2.5-10.8 0-18.2-4.6-18.2-15.1Z"/>
</svg>
